<?xml version="1.0" standalone="no"?><!DOCTYPE svg PUBLIC "-//W3C//DTD SVG 1.1//EN" "http://www.w3.org/Graphics/SVG/1.1/DTD/svg11.dtd"><svg t="1584434007493" class="icon" viewBox="0 0 1024 1024" version="1.1" xmlns="http://www.w3.org/2000/svg" p-id="5065" xmlns:xlink="http://www.w3.org/1999/xlink" width="200" height="200"><defs><style type="text/css"></style></defs><path d="M512 64 448 64 0 64l0 384 0 64 0 384 960 0L960 64 512 64zM64 128l384 0 0 320L64 448 64 128zM64 832 64 512l384 0 0 320L64 832zM896 832 512 832 512 512l384 0L896 832zM896 448 512 448 512 128l384 0L896 448z" p-id="5066" fill="#2c2c2c"></path></svg>