<?xml version="1.0" encoding="UTF-8"?>
<svg width="110px" height="21px" viewBox="0 0 110 21" version="1.1" xmlns="http://www.w3.org/2000/svg" xmlns:xlink="http://www.w3.org/1999/xlink">
    <!-- Generator: Sketch 52.5 (67469) - http://www.bohemiancoding.com/sketch -->
    <title>分组 10</title>
    <desc>Created with Sketch.</desc>
    <g id="Page-1" stroke="none" stroke-width="1" fill="none" fill-rule="evenodd">
        <g id="首页" transform="translate(-26.000000, -18.000000)" fill="#FFFFFF">
            <g id="分组-10" transform="translate(26.000000, 18.000000)">
                <path d="M1,20 L1,10 L7,20 L1,20 Z M15,8.91566265 L18.8150635,1 L26,1 L26,20 L15,20 L15,8.91566265 Z M1,6.31552826 L1,1 L9.40237691,1 L14.9425049,9.04372117 L9.5,20 L1,6.31552826 Z M29,20 L29,1 L48.9517782,1 L48.9517782,8.15662651 L47.0470163,6.72289157 L47.0470163,13.8072289 L49,12.2289157 L49,20 L29,20 Z M47,14.2375839 L40,11 L40,20 L47,14.2375839 Z M47,6.24295302 L40,10 L40,1 L47,6.24295302 Z M70,20 L54,20 C54.183307,18.4623218 54.7397662,17.0159916 55.6693944,15.6609658 C56.5990227,14.30594 58.342595,12.7066938 60.9001637,10.8631791 C62.4626374,9.73328297 63.4620818,8.87525444 63.898527,8.28906774 C64.3349722,7.70288104 64.5531915,7.14643679 64.5531915,6.61971831 C64.5531915,6.05052253 64.3371544,5.56416477 63.9050736,5.16063045 C63.4729929,4.75709613 62.9296268,4.55533199 62.2749591,4.55533199 C61.5941046,4.55533199 61.0376454,4.76346763 60.6055646,5.17974514 C60.1734839,5.59602265 59.8832522,6.33086887 59.7348609,7.38430584 L54.3927987,6.9637827 C54.6022924,5.50256368 54.9863584,4.36206536 55.5450082,3.54225352 C56.103658,2.72244169 56.8914297,2.09378712 57.908347,1.65627096 C58.9252642,1.2187548 60.3327788,1 62.1309329,1 C64.0076471,1 65.4675343,1.20813563 66.5106383,1.62441315 C67.5537423,2.04069066 68.3742469,2.67996439 68.9721768,3.54225352 C69.5701066,4.40454265 69.8690671,5.37088667 69.8690671,6.44131455 C69.8690671,7.57970612 69.5264628,8.66710861 68.8412439,9.70355466 C68.1560249,10.7400007 66.9099927,11.8783752 65.1031097,13.1187123 C64.0294545,13.8408263 63.311513,14.3462986 62.9492635,14.6351442 C62.587014,14.9239898 62.1614864,15.3020321 61.6726678,15.7692824 L70,15.7692824 L70,20 Z" id="ME"></path>
                <path d="M78.1269531,11 L79.2910156,11 L82.1347656,17.5514706 L84.9550781,11 L86.1269531,11 L82.2363281,20 L82.0410156,20 L78.1269531,11 Z M88.1269531,18 C88.4033773,18 88.6391473,18.0967732 88.8342702,18.2903226 C89.0293931,18.4838719 89.1269531,18.7204287 89.1269531,19 C89.1269531,19.2741949 89.0293931,19.5094076 88.8342702,19.7056452 C88.6391473,19.9018827 88.4033773,20 88.1269531,20 C87.850529,20 87.614759,19.9018827 87.4196361,19.7056452 C87.2245131,19.5094076 87.1269531,19.2741949 87.1269531,19 C87.1269531,18.7204287 87.2245131,18.4838719 87.4196361,18.2903226 C87.614759,18.0967732 87.850529,18 88.1269531,18 Z M92.5363625,11.9628647 L91.4072334,11.9628647 C91.4392656,10.8063603 91.8276501,9.85676764 92.5723986,9.11405836 C93.317147,8.37134907 94.2367241,8 95.3311573,8 C96.4149132,8 97.2917813,8.34747663 97.961788,9.04244032 C98.6317946,9.73740401 98.966793,10.5570245 98.966793,11.5013263 C98.966793,12.1644595 98.8066344,12.7864692 98.4863125,13.367374 C98.1659906,13.9482788 97.5440415,14.7347431 96.6204466,15.7267905 L93.6895157,18.8700265 L99.1269531,18.8700265 L99.1269531,20 L91.1269531,20 L95.6274536,15.1697613 C96.5403711,14.1989341 97.1342924,13.4787822 97.4092354,13.0092838 C97.6841784,12.5397855 97.8216478,12.0450954 97.8216478,11.5251989 C97.8216478,10.8673707 97.5747367,10.3010634 97.0809071,9.82625995 C96.5870774,9.35145651 95.9824789,9.11405836 95.2670933,9.11405836 C94.5143367,9.11405836 93.8883837,9.36339273 93.3892154,9.86206897 C92.8900471,10.3607452 92.6057656,11.0610034 92.5363625,11.9628647 Z M101.126953,14.0038835 C101.126953,12.4970798 101.292954,11.332043 101.624961,10.5087379 C101.956968,9.68543278 102.425755,9.0614908 103.031336,8.6368932 C103.636916,8.21229561 104.3142,8 105.063208,8 C105.82284,8 106.510748,8.2135901 107.126953,8.6407767 C107.743158,9.0679633 108.230537,9.70873359 108.589105,10.5631068 C108.947672,11.41748 109.126953,12.5643941 109.126953,14.0038835 C109.126953,15.4381949 108.950328,16.579931 108.597073,17.4291262 C108.243817,18.2783214 107.756438,18.9190917 107.134921,19.3514563 C106.513404,19.7838209 105.82284,20 105.063208,20 C104.3142,20 103.639572,19.7902934 103.039304,19.3708738 C102.439035,18.9514542 101.970248,18.3262177 101.632929,17.4951456 C101.29561,16.6640735 101.126953,15.5003311 101.126953,14.0038835 Z M102.126953,14 C102.126953,15.305038 102.249373,16.2916633 102.494216,16.9599057 C102.739059,17.628148 103.100816,18.1352184 103.579498,18.4811321 C104.05818,18.8270458 104.564364,19 105.098067,19 C105.637272,19 106.140706,18.8309765 106.608384,18.4929245 C107.076061,18.1548725 107.430941,17.6478021 107.673033,16.9716981 C107.975648,16.1488428 108.126953,15.1582867 108.126953,14 C108.126953,12.8364722 107.992154,11.8839136 107.722551,11.1422956 C107.452949,10.4006776 107.080188,9.85823023 106.604257,9.51493711 C106.128326,9.17164399 105.626268,9 105.098067,9 C104.558862,9 104.052678,9.17164399 103.579498,9.51493711 C103.106318,9.85823023 102.745936,10.3639904 102.498342,11.0322327 C102.250748,11.700475 102.126953,12.6897209 102.126953,14 Z" id="v.20"></path>
            </g>
        </g>
    </g>
</svg>