<?xml version="1.0" encoding="UTF-8"?>
<svg width="18px" height="18px" viewBox="0 0 18 18" version="1.1" xmlns="http://www.w3.org/2000/svg" xmlns:xlink="http://www.w3.org/1999/xlink">
    <!-- Generator: Sketch 52.5 (67469) - http://www.bohemiancoding.com/sketch -->
    <title>采购计划</title>
    <desc>Created with Sketch.</desc>
    <g id="Page-1" stroke="none" stroke-width="1" fill="none" fill-rule="evenodd">
        <g id="首页" transform="translate(-492.000000, -88.000000)">
            <g id="输入框-新增编辑带星号-copy-17" transform="translate(480.000000, 80.000000)">
                <g id="采购计划" transform="translate(12.000000, 8.000000)">
                    <rect id="矩形" fill="#000000" opacity="0" x="0" y="0" width="18" height="18"></rect>
                    <path d="M1.64192005,8.49744006 C1.64192005,6.41552725 1.64,5.63411552 1.64,3.5522027 C1.64,1.74756352 2.6417607,1.63 3.60488439,1.63 C4.13163816,1.63 8.12945842,1.63 11.4643905,1.63 C12.9783315,1.63 13.4465081,2.14520202 13.4465081,3.59486866 C13.4465081,4.33649452 13.4465081,3.83520498 13.4465081,4.57730298 C13.4465081,5.35202605 12.4609261,5.26326323 12.4609261,4.57730298 C12.4609261,3.90763166 12.4609261,4.26453998 12.4609261,3.59486866 C12.4609261,2.86715527 12.2242253,2.61243433 11.4643905,2.61243433 C8.19472427,2.61243433 6.87456634,2.61243433 3.60488439,2.61243433 C2.791304,2.61243433 2.62245006,2.72275831 2.62245006,3.59486866 C2.62245006,7.74432539 2.62245006,9.26977094 2.62245006,13.4192434 C2.62245006,13.9577063 2.91717722,14.4016777 3.60488439,14.4016777 C4.79649362,14.4016777 4.37817528,14.4021499 5.56975305,14.4016777 C6.17034991,14.4016777 6.21447952,15.3841121 5.56975305,15.3841121 C4.92502658,15.3841121 4.43668948,15.3919496 3.23455147,15.3871495 C2.52555067,15.3842537 1.93837839,14.9643458 1.72923495,14.3143314 C1.67068927,14.132525 1.64576014,13.9315339 1.64576014,13.739183 C1.64000002,11.6644467 1.64192005,10.5721606 1.64192005,8.49744006 Z M11.454743,16.3660428 C8.7453842,16.3655706 6.55217164,14.1689901 6.55217164,11.4553033 C6.55217164,8.74161648 8.75592872,6.54215591 11.4700877,6.545996 C14.1842624,6.54982036 16.3765149,8.75167313 16.3736506,11.4701758 C16.370802,14.1776303 14.1718136,16.3665464 11.454743,16.3660428 Z M11.4681834,7.52940608 C9.31433177,7.52459022 7.5442062,9.28703561 7.53942183,11.4428387 C7.53462172,13.604402 9.28842689,15.3720724 11.4441985,15.3783362 C13.6086261,15.3840963 15.3835361,13.6317391 15.3883362,11.4826561 C15.3940963,9.30238025 13.6412669,7.53467834 11.4681834,7.52940608 Z M10.4819404,4.57730298 C11.2648158,4.57777513 11.1573562,5.55972158 10.4819404,5.55972158 C9.80650897,5.55972158 5.32412873,5.55972158 4.587303,5.55972158 C3.85047725,5.55972158 3.88118227,4.57730298 4.587303,4.57730298 C6.52148237,4.57681511 9.72975431,4.57681511 10.4819404,4.57730298 Z M11.4769495,10.6604355 C11.4779253,10.7074452 11.5040977,10.7650151 11.5348027,10.7985844 C11.7765555,11.0590812 12.9549919,12.2943007 13.1958319,12.5552539 C13.4433762,12.822943 13.3445253,13.252278 13.0125776,13.3630584 C12.8437236,13.4192119 12.6844385,13.3875469 12.5568341,13.2570624 C12.2364066,12.9279947 10.9383292,11.6107326 10.6226862,11.2759048 C10.5382513,11.1866384 10.4979618,11.0734658 10.4979618,10.9463335 C10.4979618,10.2934705 10.4960418,9.64008808 10.4989218,8.98673716 C10.5008104,8.71522369 10.7042252,8.50894458 10.9594497,8.50798456 C11.2175229,8.50702455 11.4743212,8.71714373 11.4772013,8.99392947 C11.4791213,9.26977094 11.4711736,10.3812418 11.4769495,10.6604355 Z M5.56973731,7.52459023 C6.35262844,7.52507811 6.24516878,8.50702456 5.56973731,8.50702456 C4.89430584,8.50702456 5.32412873,8.50702456 4.58730298,8.50702456 C3.85047723,8.50702456 3.88118225,7.52459023 4.58730298,7.52459023 C6.52148237,7.52411809 4.81756694,7.52411809 5.56973731,7.52459023 Z" id="形状" fill="#666666" fill-rule="nonzero"></path>
                </g>
            </g>
        </g>
    </g>
</svg>