<?xml version="1.0" encoding="UTF-8"?>
<svg width="16px" height="16px" viewBox="0 0 16 16" version="1.1" xmlns="http://www.w3.org/2000/svg" xmlns:xlink="http://www.w3.org/1999/xlink">
    <!-- Generator: Sketch 52.5 (67469) - http://www.bohemiancoding.com/sketch -->
    <title>file-unknown-fill</title>
    <desc>Created with Sketch.</desc>
    <g id="Page-1" stroke="none" stroke-width="1" fill="none" fill-rule="evenodd">
        <g id="首页" transform="translate(-26.000000, -395.000000)">
            <g id="file-unknown-fill-copy" transform="translate(26.000000, 395.000000)">
                <rect id="矩形" fill="#000000" opacity="0" x="0" y="0" width="16" height="16"></rect>
                <g id="报文管理" transform="translate(2.000000, 1.000000)" fill="#FFFFFF" fill-rule="nonzero">
                    <path d="M1.49433962,14 L0,14 L0,0.7 C0,0.42 0.181132075,0.186666667 0.40754717,0.0466666667 C0.498113208,0.0466666667 0.543396226,0 0.588679245,0 L11.4113208,0 C11.5018868,0.0466666667 11.5471698,0.0466666667 11.6377358,0.0933333333 C11.909434,0.233333333 12,0.513333333 12,0.84 L12,14 L10.5056604,14 C10.3698113,13.6266667 10.0528302,13.3466667 9.69056604,13.3 C9.14716981,13.2533333 8.6490566,13.5333333 8.51320755,14 L6.97358491,14 C6.79245283,13.5333333 6.33962264,13.2533333 5.84150943,13.3 C5.47924528,13.3466667 5.11698113,13.6266667 5.02641509,14 L3.48679245,14 C3.30566038,13.44 2.67169811,13.16 2.12830189,13.3466667 C2.08301887,13.3466667 2.08301887,13.3933333 2.03773585,13.3933333 C1.76603774,13.4866667 1.58490566,13.72 1.49433962,14 Z M3.89056604,11.1066667 L3.89056604,5.04 L1.76603774,5.04 L1.76603774,11.1066667 L3.89056604,11.1066667 Z M10.1886792,2.52 L1.76603774,2.52 L1.76603774,3.59333333 L10.1886792,3.59333333 L10.1886792,2.52 Z M5.01983643,7.56 L5.01983643,8.63333333 L10.1886792,8.63333333 L10.1886792,7.56 L5.01983643,7.56 Z M5.01983643,6.11333333 L10.1886792,6.11333333 L10.1886792,5.04 L5.01983643,5.04 L5.01983643,6.11333333 Z M10.1886792,10.0333333 L5.01983643,10.0333333 L5.01983643,11.1066667 L10.1886792,11.1066667 L10.1886792,10.0333333 Z" id="形状"></path>
                </g>
            </g>
        </g>
    </g>
</svg>