<?xml version="1.0" encoding="UTF-8"?>
<svg width="18px" height="18px" viewBox="0 0 18 18" version="1.1" xmlns="http://www.w3.org/2000/svg" xmlns:xlink="http://www.w3.org/1999/xlink">
    <!-- Generator: Sketch 52.5 (67469) - http://www.bohemiancoding.com/sketch -->
    <title>lock</title>
    <desc>Created with Sketch.</desc>
    <g id="Page-1" stroke="none" stroke-width="1" fill="none" fill-rule="evenodd">
        <g id="登录页" transform="translate(-580.000000, -388.000000)">
            <g id="lock" transform="translate(580.000000, 388.000000)">
                <rect id="矩形" fill-rule="nonzero" x="0" y="0" width="18" height="18"></rect>
                <g id="分组" transform="translate(1.227273, 0.000000)" fill="#989898">
                    <path d="M1.41322448,15.6551976 L1.41322448,8.54413043 L1.40757159,8.54199605 L14.1322301,8.54413043 L14.137883,15.6566206 L1.41322448,15.6551976 Z M7.70169509,2.13883399 C9.21974296,2.14157906 10.4492473,3.38079719 10.4504135,4.90926877 L10.4504135,7.11907115 L4.95438989,7.11907115 L4.95438989,4.90926877 C4.95516578,3.38118951 6.18403787,2.14197153 7.70169509,2.13883399 Z M14.137883,7.11907115 L11.8636364,7.11907115 L11.8636364,4.90926877 C11.8620797,2.59510052 10.0000829,0.71904748 7.70169509,0.715909091 C5.40732781,0.715909091 3.54116705,2.59701581 3.54116705,4.90926877 L3.54116705,7.11907115 L1.40757159,7.11907115 C0.628450754,7.12220816 -0.00117327842,7.75965539 1.64168519e-06,8.54413043 L1.64168519e-06,15.6551976 C-0.000783438494,16.4393951 0.628726892,17.0764091 1.40757159,17.0795455 L14.137883,17.0795455 C14.9167277,17.0764091 15.546238,16.4393951 15.5454529,15.6551976 L15.5454529,8.54413043 C15.5466278,7.75965539 14.9170038,7.12220816 14.137883,7.11907115 Z" id="形状" fill-rule="nonzero"></path>
                    <path d="M7.77272727,9.71590909 C7.32085793,9.71590909 6.95454545,10.0211695 6.95454545,10.3977273 L6.95454545,13.125 C6.95454545,13.5015578 7.32085793,13.8068182 7.77272727,13.8068182 C8.22459661,13.8068182 8.59090909,13.5015578 8.59090909,13.125 L8.59090909,10.3977273 C8.59090909,10.0211695 8.22459661,9.71590909 7.77272727,9.71590909" id="路径"></path>
                </g>
            </g>
        </g>
    </g>
</svg>