<?xml version="1.0" encoding="UTF-8"?>
<svg width="111px" height="31px" viewBox="0 0 111 31" version="1.1" xmlns="http://www.w3.org/2000/svg" xmlns:xlink="http://www.w3.org/1999/xlink">
    <!-- Generator: Sketch 52.5 (67469) - http://www.bohemiancoding.com/sketch -->
    <title>分组 10</title>
    <desc>Created with Sketch.</desc>
    <g id="Page-1" stroke="none" stroke-width="1" fill="none" fill-rule="evenodd">
        <g id="登录页" transform="translate(-665.000000, -201.000000)" fill="#009788">
            <g id="分组-10" transform="translate(665.000000, 201.000000)">
                <g id="分组-3" transform="translate(2.000000, 2.000000)">
                    <path d="M0,28 L0,13.2631579 L9.12676056,28 L0,28 Z M21.2957746,11.6651871 L27.0989698,1.59872116e-14 L38.028169,-3.37507799e-14 L38.028169,28 L21.2957746,28 L21.2957746,11.6651871 Z M0,7.83341006 L0,0 L12.7810804,0 L21.2083173,11.8539049 L12.9295775,28 L0,7.83341006 Z M42.5915493,28 L42.5915493,0 L72.940733,0 L72.940733,10.5466075 L70.0433487,8.43373494 L70.0433487,18.873811 L73.0140845,16.5478757 L73.0140845,28 L42.5915493,28 Z M69.971831,19.5080184 L59.3239437,14.7368421 L59.3239437,28 L69.971831,19.5080184 Z M69.971831,7.72645708 L59.3239437,0 L59.3239437,13.2631579 L69.971831,7.72645708 Z" id="ME"></path>
                    <path d="M77.5774648,28 L77.5774648,0 L107.926648,0 L107.926648,10.5466075 L105.029264,8.43373494 L105.029264,18.873811 L108,16.5478757 L108,28 L77.5774648,28 Z M104.957746,19.5080184 L94.3098592,14.7368421 L94.3098592,28 L104.957746,19.5080184 Z M104.957746,9.20014129 L94.3098592,1.47368421 L94.3098592,14.7368421 L104.957746,9.20014129 Z" id="E"></path>
                </g>
            </g>
        </g>
    </g>
</svg>