<?xml version="1.0" encoding="UTF-8"?>
<svg width="18px" height="18px" viewBox="0 0 18 18" version="1.1" xmlns="http://www.w3.org/2000/svg" xmlns:xlink="http://www.w3.org/1999/xlink">
    <!-- Generator: Sketch 52.5 (67469) - http://www.bohemiancoding.com/sketch -->
    <title>people</title>
    <desc>Created with Sketch.</desc>
    <g id="Page-1" stroke="none" stroke-width="1" fill="none" fill-rule="evenodd">
        <g id="登录页" transform="translate(-580.000000, -328.000000)" fill-rule="nonzero">
            <g id="people" transform="translate(580.000000, 328.000000)">
                <rect id="矩形" x="0" y="0" width="18" height="18"></rect>
                <path d="M15.3595041,15.7640046 L2.67370661,15.7647128 C2.6611711,15.7635272 2.64943389,15.7580209 2.64049587,15.7491325 L2.64049587,13.1231321 C2.64049587,12.9935318 2.77121901,12.7924034 2.90759504,12.7371639 C2.93091322,12.7272491 4.44023554,12.067208 6.21877686,11.6203347 C7.12959917,11.3915866 8.10966942,11.2173698 9,11.2173698 C9.80907025,11.2173698 10.6944545,11.3611341 11.5353223,11.5594297 C12.7564343,11.857702 13.9516342,12.2539179 15.1093636,12.7442459 C15.2266612,12.7924034 15.3595041,12.99424 15.3595041,13.1231321 L15.3595041,15.7647128 L15.3595041,15.7640046 Z M9.0038459,2.23457898 C10.2598109,2.23418363 11.2791622,3.25265645 11.2826682,4.51143741 L11.2826682,7.23587734 C11.2791622,8.4946583 10.0828451,9.51313112 8.82688017,9.51273577 C7.57103035,9.51313018 6.72884736,8.49454391 6.7257302,7.23587734 L6.7257302,4.51143741 C6.72884736,3.25277084 7.74799609,2.23418457 9.0038459,2.23457898 Z M15.6626405,11.4411605 C15.5764339,11.4029178 14.3695413,10.8746016 12.8072231,10.4284365 C12.2785073,10.2760038 11.9205612,10.1460513 11.3808872,10.0389273 C12.1779451,9.36188947 12.6958914,8.36403768 12.6958914,7.23587734 L12.6958914,4.51143741 C12.6923834,2.47067808 11.0407417,0.81817879 9.00455252,0.818181818 C6.96951119,0.818181818 5.31250706,2.4718255 5.31250706,4.51143741 L5.31250706,7.23587734 C5.31250706,8.39449022 5.85942442,9.41854536 6.69746574,10.0969996 C6.13500293,10.215977 5.41394628,10.3597413 4.91295868,10.5098794 C4.04522488,10.7692319 3.19265937,11.0770718 2.35926446,11.4319539 C1.71342149,11.6918628 1.22727273,12.4191827 1.22727273,13.1231321 L1.22727273,16.0373693 L1.26472314,16.1478483 C1.47458678,16.7661056 2.04058264,17.1818182 2.67370661,17.1818182 L15.3262934,17.1818182 C16.0522238,17.1816799 16.6657201,16.6425292 16.7607149,15.9212247 L16.7727273,13.1238403 C16.7727273,12.4241401 16.2879917,11.6982366 15.6626405,11.4411605 Z" id="形状" fill="#989898"></path>
            </g>
        </g>
    </g>
</svg>