<?xml version="1.0" encoding="UTF-8"?>
<svg width="16px" height="16px" viewBox="0 0 16 16" version="1.1" xmlns="http://www.w3.org/2000/svg" xmlns:xlink="http://www.w3.org/1999/xlink">
    <!-- Generator: Sketch 52.5 (67469) - http://www.bohemiancoding.com/sketch -->
    <title>file-ppt-fill</title>
    <desc>Created with Sketch.</desc>
    <g id="Page-1" stroke="none" stroke-width="1" fill="none" fill-rule="evenodd">
        <g id="首页" transform="translate(-26.000000, -263.000000)">
            <g id="file-ppt-fill" transform="translate(26.000000, 263.000000)">
                <rect id="矩形" fill="#000000" opacity="0" x="0" y="0" width="16" height="16"></rect>
                <path d="M13.353125,4.5109375 C13.446875,4.6046875 13.5,4.73125 13.5,4.8640625 L13.5,14.5 C13.5,14.7765625 13.2765625,15 13,15 L3,15 C2.7234375,15 2.5,14.7765625 2.5,14.5 L2.5,1.5 C2.5,1.2234375 2.7234375,1 3,1 L9.6359375,1 C9.76875,1 9.896875,1.053125 9.990625,1.146875 L13.353125,4.5109375 Z M12.346875,5.09375 L9.40625,2.153125 L9.40625,5.09375 L12.346875,5.09375 Z M9.50594488,7.51726669 C9.68619031,7.51726669 9.82010304,7.47365879 9.90768709,7.3864417 C9.99527113,7.2992246 10.0390625,7.18362907 10.0390625,7.03965165 C10.0390625,6.89844302 9.99527113,6.78423187 9.90768709,6.69701477 C9.82010304,6.60979768 9.68619031,6.56618978 9.50594488,6.56618978 L6.84035679,6.56618978 C6.6804207,6.56618978 6.66797807,6.59180077 6.56516202,6.64302351 C6.46234596,6.69424624 6.38682172,6.77592452 6.33858703,6.88806079 C6.29035234,7.00019705 6.26623535,7.14486451 6.26623535,7.3220675 L6.26623535,12.0068481 C6.26623535,12.2588086 6.31891192,12.4470839 6.42426665,12.5716798 C6.52962137,12.6962756 6.6728047,12.7585726 6.84035679,12.7585726 C7.00537021,12.7585726 7.01488881,12.6969678 7.12024354,12.5737563 C7.22559826,12.4505449 7.27827483,12.2615773 7.27827483,12.0068481 L7.27827483,10.0008649 L9.14037851,10.0008649 C9.31046927,10.0008649 9.43867008,9.95933356 9.5249848,9.87626966 C9.61129951,9.79320576 9.65445622,9.68107118 9.65445622,9.53986255 C9.65445622,9.39865392 9.61193417,9.28582714 9.52688879,9.20137885 C9.44184341,9.11693055 9.31300794,9.07470703 9.14037851,9.07470703 L7.27827483,9.07470703 L7.27827483,7.51726669 L9.50594488,7.51726669 Z" id="形状" fill="#FFFFFF" fill-rule="nonzero"></path>
            </g>
        </g>
    </g>
</svg>