<?xml version="1.0" encoding="UTF-8"?>
<svg width="18px" height="18px" viewBox="0 0 18 18" version="1.1" xmlns="http://www.w3.org/2000/svg" xmlns:xlink="http://www.w3.org/1999/xlink">
    <!-- Generator: Sketch 52.5 (67469) - http://www.bohemiancoding.com/sketch -->
    <title>收起</title>
    <desc>Created with Sketch.</desc>
    <g id="Page-1" stroke="none" stroke-width="1" fill="none" fill-rule="evenodd">
        <g id="首页" transform="translate(-220.000000, -21.000000)">
            <g id="收起" transform="translate(220.000000, 21.000000)">
                <rect id="矩形" fill="#000000" opacity="0" x="0" y="0" width="18" height="18"></rect>
                <g id="分组" transform="translate(1.000000, 2.000000)" fill="#666666">
                    <path d="M0.666121494,0 L15.3207944,0 C15.7648754,0 15.9869159,0.222040498 15.9869159,0.666121494 C15.9869159,1.11020249 15.7648754,1.33224299 15.3207944,1.33224299 L0.666121494,1.33224299 C0.222040498,1.33224299 -7.81597009e-14,1.11020249 -7.81597009e-14,0.666121494 C-7.81597009e-14,0.222040498 0.222040498,0 0.666121494,0 Z" id="路径"></path>
                    <path d="M0.666121494,11.9901869 L15.3207944,11.9901869 C15.7648754,11.9901869 15.9869159,12.2122274 15.9869159,12.6563084 C15.9869159,13.1003894 15.7648754,13.3224299 15.3207944,13.3224299 L0.666121494,13.3224299 C0.222040498,13.3224299 -7.81597009e-14,13.1003894 -7.81597009e-14,12.6563084 C-7.81597009e-14,12.2122274 0.222040498,11.9901869 0.666121494,11.9901869 Z" id="路径"></path>
                    <path d="M5.99509346,7.99345795 L15.3207944,7.99345795 C15.7648754,7.99345795 15.9869159,8.21549844 15.9869159,8.65957944 C15.9869159,9.10366044 15.7648754,9.32570093 15.3207944,9.32570093 L5.99509346,9.32570093 C5.55101247,9.32570093 5.32897197,9.10366044 5.32897197,8.65957944 C5.32897197,8.21549844 5.55101247,7.99345795 5.99509346,7.99345795 Z" id="路径"></path>
                    <path d="M5.99509346,3.99672898 L15.3207944,3.99672898 C15.7648754,3.99672898 15.9869159,4.21876948 15.9869159,4.66285047 C15.9869159,5.10693147 15.7648754,5.32897197 15.3207944,5.32897197 L5.99509346,5.32897197 C5.55101247,5.32897197 5.32897197,5.10693147 5.32897197,4.66285047 C5.32897197,4.21876948 5.55101247,3.99672898 5.99509346,3.99672898 Z" id="路径"></path>
                    <path d="M0.0970634231,6.98475969 L3.6541522,9.50460215 C3.72476574,9.55469205 3.81750624,9.56094562 3.89420517,9.52078911 C3.97090409,9.48063261 4.01860046,9.40085189 4.01766422,9.31428172 L4.01766422,4.2765 C4.01860046,4.18992983 3.97090409,4.11014911 3.89420517,4.06999261 C3.81750624,4.0298361 3.72476574,4.03608967 3.6541522,4.08617957 L0.0970634231,6.60792524 C0.0364714218,6.65156076 0.000561752778,6.72167353 0.000561752778,6.79634246 C0.000561752778,6.87101139 0.0364714218,6.94112417 0.0970634231,6.98475969 Z" id="路径"></path>
                </g>
            </g>
        </g>
    </g>
</svg>