<?xml version="1.0" encoding="UTF-8"?>
<svg width="73px" height="21px" viewBox="0 0 73 21" version="1.1" xmlns="http://www.w3.org/2000/svg" xmlns:xlink="http://www.w3.org/1999/xlink">
    <!-- Generator: Sketch 52.5 (67469) - http://www.bohemiancoding.com/sketch -->
    <title>分组 10</title>
    <desc>Created with Sketch.</desc>
    <g id="Page-1" stroke="none" stroke-width="1" fill="none" fill-rule="evenodd">
        <g id="首页" transform="translate(-26.000000, -18.000000)" fill="#FFFFFF">
            <g id="分组-10" transform="translate(26.000000, 18.000000)">
                <path d="M1,20 L1,10 L7,20 L1,20 Z M15,8.91566265 L18.8150635,1 L26,1 L26,20 L15,20 L15,8.91566265 Z M1,6.31552826 L1,1 L9.40237691,1 L14.9425049,9.04372117 L9.5,20 L1,6.31552826 Z M29,20 L29,1 L48.9517782,1 L48.9517782,8.15662651 L47.0470163,6.72289157 L47.0470163,13.8072289 L49,12.2289157 L49,20 L29,20 Z M47,14.2375839 L40,11 L40,20 L47,14.2375839 Z M47,6.24295302 L40,1 L40,10 L47,6.24295302 Z" id="ME"></path>
                <path d="M52,20 L52,1 L71.9517782,1 L71.9517782,8.15662651 L70.0470163,6.72289157 L70.0470163,13.8072289 L72,12.2289157 L72,20 L52,20 Z M70,14.2375839 L63,11 L63,20 L70,14.2375839 Z M70,7.24295302 L63,2 L63,11 L70,7.24295302 Z" id="E"></path>
            </g>
        </g>
    </g>
</svg>