<?xml version="1.0" encoding="UTF-8"?>
<svg width="16px" height="16px" viewBox="0 0 16 16" version="1.1" xmlns="http://www.w3.org/2000/svg" xmlns:xlink="http://www.w3.org/1999/xlink">
    <!-- Generator: Sketch 52.5 (67469) - http://www.bohemiancoding.com/sketch -->
    <title>退出</title>
    <desc>Created with Sketch.</desc>
    <g id="Page-1" stroke="none" stroke-width="1" fill="none" fill-rule="evenodd">
        <g id="首页" transform="translate(-1366.000000, -23.000000)">
            <g id="退出" transform="translate(1366.000000, 23.000000)">
                <rect id="矩形" fill="#000000" opacity="0" x="0" y="0" width="16" height="16"></rect>
                <path d="M13.8808889,11.5335111 C13.6258844,11.5319343 13.417779,11.7371759 13.4158222,11.9921778 L13.4158222,12.5966222 C13.4156406,12.9831913 13.2591969,13.3532705 12.9820444,13.6227556 C12.7044724,13.8961047 12.3305494,14.0493518 11.9409778,14.0494222 L3.89617778,14.0494222 C3.69850898,14.0495913 3.50275664,14.0106826 3.32017778,13.9349333 C2.9691885,13.7875418 2.68886704,13.5100236 2.53795556,13.1605333 C2.46128051,12.9824301 2.42183548,12.7905288 2.42204444,12.5966222 L2.42204444,3.68071111 C2.42244302,3.29432799 2.57856041,2.92441437 2.85511111,2.65457778 C3.13311997,2.38101323 3.50756607,2.22776107 3.8976,2.22791111 L11.9395556,2.22791111 C12.1372703,2.22798607 12.3330208,2.26713618 12.5155556,2.34311111 C12.6904869,2.41548231 12.849475,2.5215549 12.9834667,2.65528889 C13.2588129,2.92588559 13.4144931,3.29536995 13.4158222,3.68142222 L13.4158222,4.28444444 C13.425595,4.53441609 13.6310818,4.73202625 13.8812444,4.73202625 C14.1314071,4.73202625 14.3368939,4.53441609 14.3466667,4.28444444 L14.3466667,3.68213333 C14.3456743,3.05272837 14.092341,2.4500052 13.6433778,2.00888889 C13.4234646,1.79049143 13.1630815,1.61706372 12.8768,1.49831111 C12.5795047,1.37614595 12.2609688,1.31403387 11.9395556,1.31555556 L3.89617778,1.31555556 C3.26079575,1.31485 2.65051965,1.56355666 2.19662222,2.00817778 C1.74326778,2.44812485 1.48683481,3.05253735 1.48551111,3.68426667 L1.48551111,12.5952 C1.48506311,12.9116248 1.54943813,13.2247875 1.67466667,13.5153778 C1.79504368,13.7976639 1.96973268,14.0535362 2.1888,14.2684444 C2.40868339,14.4867003 2.66908596,14.6598994 2.95537778,14.7783111 C3.2531512,14.9038745 3.57301355,14.9686689 3.89617778,14.9688889 L11.9409778,14.9688889 C12.5758676,14.9692218 13.1855652,14.7205428 13.6391111,14.2762667 C14.0911581,13.8357236 14.346277,13.2313866 14.3466667,12.6001778 L14.3466667,11.9957333 C14.3466703,11.8725258 14.2974843,11.7544158 14.2100303,11.6676293 C14.1225763,11.5808429 14.0040927,11.5325634 13.8808889,11.5335111 Z M12.2289778,9.86026667 C12.4143945,10.0414815 12.7105832,10.0414815 12.896,9.86026667 L14.3018667,8.47573333 C14.3996996,8.3861597 14.4540385,8.25866954 14.4509039,8.12606149 C14.4477692,7.99345344 14.3874671,7.8686732 14.2855111,7.78382222 L12.896,6.41706667 C12.7108932,6.23509278 12.4140846,6.23509278 12.2289778,6.41706667 C12.1405802,6.50337693 12.0907397,6.62169852 12.0907397,6.74524444 C12.0907397,6.86879037 12.1405802,6.98711196 12.2289778,7.07342222 L12.8355556,7.6736 L8.16,7.6736 C7.90315077,7.6736 7.69493333,7.88181744 7.69493333,8.13866667 C7.69493333,8.39551589 7.90315077,8.60373333 8.16,8.60373333 L12.8391111,8.60373333 L12.2289778,9.20391111 C12.1405802,9.29022137 12.0907397,9.40854297 12.0907397,9.53208889 C12.0907397,9.65563481 12.1405802,9.7739564 12.2289778,9.86026667 Z" id="形状" fill="#232632" fill-rule="nonzero"></path>
            </g>
        </g>
    </g>
</svg>