<?xml version="1.0" encoding="UTF-8"?>
<svg width="71px" height="21px" viewBox="0 0 71 21" version="1.1" xmlns="http://www.w3.org/2000/svg" xmlns:xlink="http://www.w3.org/1999/xlink">
    <!-- Generator: Sketch 52.5 (67469) - http://www.bohemiancoding.com/sketch -->
    <title>分组 10</title>
    <desc>Created with Sketch.</desc>
    <g id="Page-1" stroke="none" stroke-width="1" fill="none" fill-rule="evenodd">
        <g id="首页" transform="translate(-26.000000, -18.000000)" fill="#FFFFFF">
            <g id="分组-10" transform="translate(26.000000, 18.000000)">
                <path d="M1,20 L1,10 L7,20 L1,20 Z M15,8.91566265 L18.8150635,1 L26,1 L26,20 L15,20 L15,8.91566265 Z M1,6.31552826 L1,1 L9.40237691,1 L14.9425049,9.04372117 L9.5,20 L1,6.31552826 Z M29,20 L29,1 L48.9517782,1 L48.9517782,8.15662651 L47.0470163,6.72289157 L47.0470163,13.8072289 L49,12.2289157 L49,20 L29,20 Z M47,14.2375839 L40,11 L40,20 L47,14.2375839 Z M47,6.24295302 L40,10 L40,1 L47,6.24295302 Z M70,20 L54,20 C54.183307,18.4623218 54.7397662,17.0159916 55.6693944,15.6609658 C56.5990227,14.30594 58.342595,12.7066938 60.9001637,10.8631791 C62.4626374,9.73328297 63.4620818,8.87525444 63.898527,8.28906774 C64.3349722,7.70288104 64.5531915,7.14643679 64.5531915,6.61971831 C64.5531915,6.05052253 64.3371544,5.56416477 63.9050736,5.16063045 C63.4729929,4.75709613 62.9296268,4.55533199 62.2749591,4.55533199 C61.5941046,4.55533199 61.0376454,4.76346763 60.6055646,5.17974514 C60.1734839,5.59602265 59.8832522,6.33086887 59.7348609,7.38430584 L54.3927987,6.9637827 C54.6022924,5.50256368 54.9863584,4.36206536 55.5450082,3.54225352 C56.103658,2.72244169 56.8914297,2.09378712 57.908347,1.65627096 C58.9252642,1.2187548 60.3327788,1 62.1309329,1 C64.0076471,1 65.4675343,1.20813563 66.5106383,1.62441315 C67.5537423,2.04069066 68.3742469,2.67996439 68.9721768,3.54225352 C69.5701066,4.40454265 69.8690671,5.37088667 69.8690671,6.44131455 C69.8690671,7.57970612 69.5264628,8.66710861 68.8412439,9.70355466 C68.1560249,10.7400007 66.9099927,11.8783752 65.1031097,13.1187123 C64.0294545,13.8408263 63.311513,14.3462986 62.9492635,14.6351442 C62.587014,14.9239898 62.1614864,15.3020321 61.6726678,15.7692824 L70,15.7692824 L70,20 Z" id="ME"></path>
            </g>
        </g>
    </g>
</svg>