<?xml version="1.0" encoding="UTF-8"?>
<svg width="16px" height="16px" viewBox="0 0 16 16" version="1.1" xmlns="http://www.w3.org/2000/svg" xmlns:xlink="http://www.w3.org/1999/xlink">
    <!-- Generator: Sketch 52.5 (67469) - http://www.bohemiancoding.com/sketch -->
    <title>270电脑、办公-线性</title>
    <desc>Created with Sketch.</desc>
    <g id="Page-1" stroke="none" stroke-width="1" fill="none" fill-rule="evenodd">
        <g id="首页" transform="translate(-1274.000000, -23.000000)">
            <g id="270电脑、办公-线性" transform="translate(1274.000000, 23.000000)">
                <rect id="矩形" fill="#000000" opacity="0" x="0" y="0" width="16" height="16"></rect>
                <path d="M14.1354489,1.79166667 C13.8962996,1.55251736 13.579633,1.42222222 13.2431746,1.42222222 L2.75506699,1.42222222 C2.41860866,1.42222222 2.10194199,1.55416667 1.86279269,1.79166667 C1.62694199,2.02751736 1.49169894,2.35407986 1.49334824,2.68723958 L1.49334824,11.3823872 C1.49169894,11.7155469 1.62694199,12.0421094 1.86279269,12.2779601 C2.10029269,12.5154601 2.41695936,12.6474045 2.75506699,12.6474045 L7.47051838,12.6474045 L7.47051838,13.8662326 L3.4973413,13.8662326 C3.21531005,13.8662326 2.97616074,14.1053819 2.97616074,14.3874132 C2.97616074,14.6694444 3.21531005,14.9085938 3.4973413,14.9085938 L12.5009003,14.9085938 C12.7829316,14.9085938 13.0220809,14.6694444 13.0220809,14.3874132 C13.0220809,14.1053819 12.7829316,13.8662326 12.5009003,13.8662326 L8.52607394,13.8662326 L8.52607394,12.6474045 L13.2431746,12.6474045 C13.579633,12.6474045 13.8962996,12.5154601 14.1354489,12.2779601 C14.3712996,12.0421094 14.5048934,11.7155469 14.5048934,11.3823872 L14.5048934,2.68559028 C14.5048934,2.35243056 14.3696503,2.02586806 14.1354489,1.79166667 Z M2.48725694,11.446951 L2.48725694,2.62120226 C2.48725694,2.50080295 2.58951389,2.40019531 2.70826389,2.40019531 L13.2980425,2.40019531 C13.4184418,2.40019531 13.5190495,2.50245226 13.5190495,2.62120226 L13.5190495,11.4453016 C13.5174002,11.565701 13.4184418,11.6663086 13.2980425,11.6663086 L2.70826389,11.6663086 C2.58786458,11.6663086 2.48725694,11.5673503 2.48725694,11.446951 Z" id="形状" fill="#232632" fill-rule="nonzero"></path>
            </g>
        </g>
    </g>
</svg>