<?xml version="1.0" encoding="UTF-8"?>
<svg width="18px" height="18px" viewBox="0 0 18 18" version="1.1" xmlns="http://www.w3.org/2000/svg" xmlns:xlink="http://www.w3.org/1999/xlink">
    <!-- Generator: Sketch 52.5 (67469) - http://www.bohemiancoding.com/sketch -->
    <title>项目空间</title>
    <desc>Created with Sketch.</desc>
    <g id="Page-1" stroke="none" stroke-width="1" fill="none" fill-rule="evenodd">
        <g id="首页" transform="translate(-232.000000, -88.000000)">
            <g id="输入框-新增编辑带星号-copy-16" transform="translate(220.000000, 80.000000)">
                <g id="项目空间" transform="translate(12.000000, 8.000000)">
                    <rect id="矩形" fill="#000000" opacity="0" x="0" y="0" width="18" height="18"></rect>
                    <path d="M2.57345688,5.75228691 L9,9 L15.3476063,5.75182305 C15.4459369,5.70150566 15.4848592,5.58100269 15.4345418,5.48267213 C15.41508,5.44463961 15.3839507,5.41383858 15.345714,5.39478092 L9,2.23199463 L2.57533985,5.39434544 C2.4762377,5.44312558 2.43544364,5.56300785 2.48422377,5.66211001 C2.50339387,5.70105616 2.53471457,5.73270812 2.57345688,5.75228691 Z M3.4,10.7142857 L2.02857142,10.0285714 C1.57142858,9.8 1.34285714,9.45714286 1.34285714,9 C1.34285714,8.54285714 1.57142856,8.2 2.02857142,7.97142858 L3.4,7.28571428 L2.02857142,6.6 C1.45714286,6.37142858 1.22857142,5.68571428 1.45714286,5.11428572 C1.57142858,4.8857143 1.8,4.65714286 1.91428572,4.65714286 L8.42857142,1.45714286 C8.77142856,1.34285714 9.1142857,1.34285714 9.45714286,1.45714286 L15.9714286,4.65714286 C16.5428572,4.88571428 16.7714286,5.57142858 16.4285714,6.14285714 C16.3142857,6.37142856 16.0857143,6.6 15.9714286,6.6 L14.6,7.28571428 L15.8571429,7.85714286 C16.4285714,8.08571428 16.6571429,8.42857144 16.6571429,9 C16.6571429,9.45714286 16.4285714,9.91428572 15.8571429,10.1428571 L14.6,10.7142857 L15.8571429,11.2857143 C16.4285714,11.5142857 16.6571429,11.8571429 16.6571429,12.4285714 C16.6571429,12.8857143 16.4285714,13.3428571 15.8571429,13.5714286 L9.57142858,16.6571429 C9.45714286,16.7714286 9.22857144,16.7714286 9,16.7714286 C8.77142856,16.7714286 8.65714286,16.7714286 8.42857142,16.6571429 L1.91428572,13.4571429 C1.45714286,13.2285714 1.34285714,12.8857143 1.34285714,12.4285714 C1.34285714,11.9714286 1.57142856,11.6285714 2.02857142,11.4 L3.4,10.7142857 Z M4.48150635,11.2857143 L2.57216173,12.2487219 C2.47353885,12.2984639 2.43391305,12.4187374 2.48365504,12.5173603 C2.50310394,12.5559214 2.53451256,12.587151 2.57318425,12.6063791 L9,15.8018799 L15.3405536,12.7177613 C15.4398833,12.6694462 15.4812388,12.5497565 15.4329237,12.4504268 C15.4140034,12.411529 15.3829824,12.3798136 15.344513,12.360037 L13.4770508,11.4 L9.57142858,13.3428571 C9.45714286,13.4571429 9.22857144,13.4571429 9,13.4571429 C8.77142856,13.4571429 8.65714286,13.4571429 8.42857142,13.3428571 L4.48150635,11.2857143 Z M13.4770508,7.85714286 L9.57142858,9.8 C9.22857144,9.91428572 8.8857143,9.91428572 8.54285714,9.8 L4.48150635,7.85714286 L2.56928157,8.82160318 C2.47065869,8.87134517 2.43103289,8.99161865 2.48077487,9.09024153 C2.50002327,9.12840511 2.53099187,9.15939824 2.56914019,9.17867685 L9,12.4285714 L15.3530045,9.17763212 C15.4513351,9.12731473 15.4902574,9.00681175 15.4399401,8.9084812 C15.4208666,8.87120773 15.390576,8.8408603 15.3533384,8.82171694 L13.4770508,7.85714286 Z" id="形状" fill="#666666" fill-rule="nonzero"></path>
                </g>
            </g>
        </g>
    </g>
</svg>