<?xml version="1.0" encoding="UTF-8"?>
<svg width="48px" height="48px" viewBox="0 0 48 48" version="1.1" xmlns="http://www.w3.org/2000/svg" xmlns:xlink="http://www.w3.org/1999/xlink">
    <!-- Generator: Sketch 52.5 (67469) - http://www.bohemiancoding.com/sketch -->
    <title>分组 3</title>
    <desc>Created with Sketch.</desc>
    <g id="Page-1" stroke="none" stroke-width="1" fill="none" fill-rule="evenodd">
        <g id="首页" transform="translate(-497.000000, -161.000000)">
            <g id="分组-3" transform="translate(497.000000, 161.000000)">
                <circle id="椭圆形-copy" fill="#F5FAF9" fill-rule="nonzero" cx="24" cy="24" r="23"></circle>
                <g id="项目" transform="translate(13.000000, 13.000000)">
                    <rect id="矩形" fill="#000000" opacity="0" x="0" y="0" width="23" height="23"></rect>
                    <path d="M21.7925,19.205 L21.7925,6.2675 C21.7925,4.715 20.355,4.83 20.355,4.83 L12.2475,4.83 C11.7875,4.83 11.5,4.6 11.5,4.6 C11.5,4.6 11.155,4.025 10.5225,3.105 C9.9475,2.07 9.2,2.2425 9.2,2.2425 L2.9325,2.2425 C1.15,2.2425 1.15,3.91 1.15,3.91 L1.15,19.09 C1.15,20.9875 2.5875,20.7575 2.5875,20.7575 L20.5275,20.7575 C22.0225,20.7575 21.7925,19.205 21.7925,19.205 Z M17.0775,11.7875 L10.1775,11.7875 C9.6025,11.7875 9.1425,11.3275 9.1425,10.7525 C9.1425,10.1775 9.6025,9.7175 10.1775,9.7175 L17.0775,9.7175 C17.6525,9.7175 18.1125,10.1775 18.1125,10.7525 C18.1125,11.3275 17.6525,11.7875 17.0775,11.7875 Z M17.0775,15.87 L10.1775,15.87 C9.6025,15.87 9.1425,15.41 9.1425,14.835 C9.1425,14.26 9.6025,13.8 10.1775,13.8 L17.0775,13.8 C17.6525,13.8 18.1125,14.26 18.1125,14.835 C18.1125,15.41 17.6525,15.87 17.0775,15.87 Z" id="形状" fill="#009788" fill-rule="nonzero"></path>
                </g>
            </g>
        </g>
    </g>
</svg>