<?xml version="1.0" encoding="UTF-8"?>
<svg width="48px" height="48px" viewBox="0 0 48 48" version="1.1" xmlns="http://www.w3.org/2000/svg" xmlns:xlink="http://www.w3.org/1999/xlink">
    <!-- Generator: Sketch 52.5 (67469) - http://www.bohemiancoding.com/sketch -->
    <title>分组 2</title>
    <desc>Created with Sketch.</desc>
    <g id="Page-1" stroke="none" stroke-width="1" fill="none" fill-rule="evenodd">
        <g id="首页" transform="translate(-297.000000, -161.000000)">
            <g id="分组-2" transform="translate(297.000000, 161.000000)">
                <circle id="椭圆形" fill="#F5FAF9" fill-rule="nonzero" cx="24" cy="24" r="23"></circle>
                <g id="通过" transform="translate(12.000000, 12.000000)">
                    <rect id="矩形" fill="#000000" opacity="0" x="0" y="0" width="25" height="25"></rect>
                    <path d="M12.5537109,2.43896484 C6.97509766,2.43896484 2.45361328,6.96044922 2.45361328,12.5390625 C2.45361328,18.1176758 6.97509766,22.6391602 12.5537109,22.6391602 C18.1323242,22.6391602 22.6513672,18.1152344 22.6513672,12.5366211 C22.6513672,6.95800781 18.1274414,2.43896484 12.5537109,2.43896484 Z M17.3828125,10.5151367 L13.5009766,14.3310547 L11.6210938,16.1694336 C11.6137695,16.1791992 11.6040039,16.1889648 11.5917969,16.2011719 C11.5771484,16.2158203 11.5600586,16.2304687 11.5429688,16.2451172 C11.4257813,16.3574219 11.2719727,16.418457 11.1083984,16.418457 L11.081543,16.418457 C10.9106445,16.418457 10.7519531,16.3549805 10.6347656,16.237793 C10.6176758,16.2231445 10.6030273,16.2084961 10.5883789,16.1962891 C10.5786133,16.1865234 10.5712891,16.1791992 10.5639648,16.1694336 L7.42919922,13.034668 C7.17529297,12.7807617 7.19238281,12.3510742 7.46582031,12.0776367 C7.60498047,11.9384766 7.79052734,11.8603516 7.97851563,11.8603516 C8.14941406,11.8603516 8.30810547,11.9238281 8.42529297,12.0410156 L11.0961914,14.7119141 L12.5146484,13.3251953 L16.3989258,9.50927734 C16.5161133,9.39453125 16.6723633,9.33349609 16.8408203,9.33349609 C17.03125,9.33349609 17.2192383,9.4140625 17.3583984,9.55566406 C17.6269531,9.83398438 17.6416016,10.2636719 17.3828125,10.5151367 Z" id="形状" fill="#009788" fill-rule="nonzero"></path>
                </g>
            </g>
        </g>
    </g>
</svg>