<?xml version="1.0" encoding="UTF-8"?>
<svg width="16px" height="16px" viewBox="0 0 16 16" version="1.1" xmlns="http://www.w3.org/2000/svg" xmlns:xlink="http://www.w3.org/1999/xlink">
    <!-- Generator: Sketch 52.5 (67469) - http://www.bohemiancoding.com/sketch -->
    <title>sever-fill</title>
    <desc>Created with Sketch.</desc>
    <g id="Page-1" stroke="none" stroke-width="1" fill="none" fill-rule="evenodd">
        <g id="首页" transform="translate(-26.000000, -351.000000)">
            <g id="sever-fill-copy" transform="translate(26.000000, 351.000000)">
                <rect id="矩形" fill="#000000" opacity="0" x="0" y="0" width="16" height="16"></rect>
                <g id="空间" transform="translate(1.500000, 1.000000)" fill="#FFFFFF" fill-rule="nonzero">
                    <path d="M0.224266386,11.1181035 L5.27682949,14.0016971 C5.58142234,14.1755377 5.96642555,13.9637308 5.96642555,13.6223563 L5.96642555,8.01262633 C5.96642555,7.85784916 5.88227322,7.7144172 5.74470974,7.63473277 L0.692146643,4.70808104 C0.387587353,4.53166758 0,4.74327797 0,5.08595674 L0,10.738727 C0,10.8945404 0.0852598209,11.0387585 0.224266386,11.1181035 Z M7.72573787,14.01976 L12.7782842,11.0931083 C12.9158309,11.0134239 13,10.8699919 13,10.7152148 L13,5.10552051 C13,4.76412814 12.6149968,4.55232121 12.3104039,4.7261619 L7.25785762,7.60973759 C7.11883427,7.68906469 7.03357445,7.83328278 7.03357445,7.9890962 L7.03357445,13.6418665 C7.03359123,13.9845452 7.42119536,14.1961735 7.72573787,14.01976 Z M6.28321755,0.0621752918 L1.30514143,2.92488295 C1.00786472,3.09582927 1.00786472,3.51113521 1.30514143,3.68206366 L6.28321755,6.54477132 C6.42735883,6.62767171 6.60700686,6.62767171 6.75116493,6.54477132 L11.7292746,3.68202793 C12.0265513,3.51109947 12.0265513,3.09579354 11.7292746,2.92484722 L6.75116493,0.0621752918 C6.60702364,-0.0207250973 6.42737561,-0.0207250973 6.28321755,0.0621752918 Z" id="形状"></path>
                </g>
            </g>
        </g>
    </g>
</svg>